<svg width="100" height="100" viewBox="0 0 100 100" fill="none" xmlns="http://www.w3.org/2000/svg">
    <g clip-path="url(#clip0_604_13)">
        <path
            d="M49.6491 0L0.127808 16.4367L7.68101 77.3813L49.6491 99.0164L91.6171 77.3813L99.1703 16.4367L49.6491 0Z"
            fill="#DD0031" />
        <mask id="mask0_604_13" style="mask-type:alpha" maskUnits="userSpaceOnUse" x="0" y="0"
            width="100" height="100">
            <path
                d="M49.6491 0L0.127808 16.4367L7.68101 77.3813L49.6491 99.0164L91.6171 77.3813L99.1703 16.4367L49.6491 0Z"
                fill="white" />
        </mask>
        <g mask="url(#mask0_604_13)">
            <path fill-rule="evenodd" clip-rule="evenodd"
                d="M49.649 0V10.9908V10.9413V61.0931V99.0164L91.6171 77.3813L99.1703 16.4367L49.649 0Z"
                fill="#C3002F" />
        </g>
        <path
            d="M64.1647 46.9603L59.4142 45.9742L63.1091 50.9047V66.1895L75.7772 56.3283V39.5646L69.971 41.5367L64.1647 46.9603Z"
            fill="white" />
        <path
            d="M34.6056 46.9603L39.3561 45.9742L35.6614 50.9047V66.1895L22.9932 56.3283V39.5646L28.7995 41.5367L34.6056 46.9603Z"
            fill="white" />
        <path fill-rule="evenodd" clip-rule="evenodd"
            d="M37.193 51.8301L41.4035 45.9016L44.0351 47.3837H54.5614L57.193 45.9016L61.4035 51.8301V74.0624L58.2456 78.5088L54.5614 81.9672H44.0351L40.3509 78.5088L37.193 74.0624V51.8301Z"
            fill="white" />
        <path d="M63.1091 75.5575L69.9711 69.1479V62.738L63.1091 68.1616V75.5575Z" fill="white" />
        <path d="M35.6614 75.5575L28.7994 69.1479V62.738L35.6614 68.1616V75.5575Z" fill="white" />
        <path fill-rule="evenodd" clip-rule="evenodd"
            d="M42.5233 17.3771L38.3005 26.7451L45.1625 45.4812H48.3295V17.3771H42.5233ZM50.4409 17.3771V45.4812H54.1358L60.4698 26.7451L56.2472 17.3771H50.4409Z"
            fill="white" />
        <path
            d="M45.1624 45.4811L22.4652 37.5923L19.2982 25.2659L38.8284 26.7451L45.6903 45.4811H45.1624Z"
            fill="white" />
        <path
            d="M54.1358 45.4811L76.833 37.5923L80 25.2659L59.9419 26.7451L53.6079 45.4811H54.1358Z"
            fill="white" />
        <path d="M61.5256 25.2659L72.6102 24.2799L65.2205 17.3771H57.8307L61.5256 25.2659Z"
            fill="white" />
        <path d="M37.2447 25.2659L26.1602 24.2799L33.55 17.3771H40.9396L37.2447 25.2659Z"
            fill="white" />
    </g>
    <defs>
        <clipPath id="clip0_604_13">
            <rect width="100" height="100" fill="white" />
        </clipPath>
    </defs>
</svg>