<svg width="100" height="100" viewBox="0 0 100 100" fill="none" xmlns="http://www.w3.org/2000/svg">
    <path
        d="M83.4205 0C92.5681 0.031593 99.9742 7.4416 100 16.5882V83.4118C99.9741 92.5625 92.5617 99.9741 83.41 100H73.4728L68.9174 88.9394H83.4205C86.4572 88.9 88.9093 86.4481 88.9487 83.4118V16.5882C88.9093 13.5519 86.4572 11.1 83.4205 11.0606H16.59C13.5533 11.1 11.1012 13.5519 11.0617 16.5882V83.4118C11.1012 86.4481 13.5533 88.9 16.59 88.9394H41.046L50.0052 69.9979L62.3588 100H16.59C7.43831 99.9741 0.0258563 92.5625 0 83.4118V16.5882C0.0258563 7.43753 7.43831 0.0258536 16.59 0H83.4205ZM66.2395 54.5759V72.3512L50.8421 63.4662L66.2395 54.5759ZM33.7709 36.8005V54.5759L18.3734 45.6856L33.7709 36.8005ZM65.4027 17.5714V35.3467L50.0052 26.4564L65.4027 17.5714Z"
        fill="#4695EB" />
    <path
        d="M33.771 54.5759L49.1685 63.4662L33.771 72.3512V54.5759ZM66.2396 36.8006L81.6371 45.6856L66.2396 54.5759V36.8006ZM34.6078 17.5714L50.0053 26.4565L34.6078 35.3467V17.5714Z"
        fill="#FF004A" />
    <path
        d="M33.771 36.8005L49.1685 45.6856V63.4661L33.771 54.5759V36.8005ZM66.2396 36.8005V54.5759L50.8421 63.4661V45.6856L66.2396 36.8005ZM50.0053 26.4564L65.4028 35.3467L50.0053 44.237L34.6078 35.3467L50.0053 26.4564Z"
        fill="#091313" />
</svg>