<svg width="100" height="100" viewBox="0 0 100 100" fill="none" xmlns="http://www.w3.org/2000/svg">
    <path
        d="M6.65905 61.1386C4.68036 55.28 4.10959 49.0959 5.25114 42.7309C5.74581 40.0909 6.50685 37.5594 7.34398 34.9918C7.34398 34.9918 12.5951 18.6093 30.3653 11.1233C30.3653 11.1233 36.4916 8.04929 45.7001 7.83231C45.7001 7.83231 44.4444 6.67505 43.6454 6.16874C39.3075 3.42025 32.8387 2.51614 28.9193 6.38573C27.7397 7.54299 26.7504 8.80874 25.6469 9.966C24.3912 11.2679 22.8691 12.3529 21.1187 12.9676C19.5966 13.5101 18.0746 13.4016 16.5145 13.6548C14.9163 13.9079 13.2801 14.4504 11.9863 15.4268C10.5784 16.5118 10.0076 17.9583 9.8554 19.6219C9.70319 20.9238 9.74124 22.2619 9.66514 23.5638C9.47488 27.3972 8.18112 28.4822 5.28919 30.6159C4.07153 31.4838 3.04414 32.6411 2.2831 33.8707C-2.6226e-06 37.7041 3.65297 41.6822 3.84322 45.5518C3.88128 46.3474 3.80517 47.143 3.50076 47.9024C3.19634 48.7342 2.58752 49.2767 2.09284 49.9638C1.40791 50.8679 0.951291 51.9529 1.14155 53.0739C1.33181 54.195 1.94064 55.2438 2.51141 56.2202C3.61491 57.9561 4.98478 59.5112 6.43074 60.9939C6.50685 60.9939 6.58295 61.0663 6.65905 61.1386Z"
        fill="#E32286" />
    <path
        d="M79.2618 75.0259C88.0137 71.4094 91.7428 65.153 91.7428 65.153C99.924 54.5568 97.1462 43.382 97.1462 43.382C91.9331 54.159 87.1766 57.1245 87.1766 57.1245C100 38.5722 87.2527 27.3612 87.2527 27.3612C92.4658 37.9212 85.5404 50.7957 85.5404 50.7957C79.7185 62.4407 71.4612 66.5996 71.4612 66.5996C80.6698 68.227 87.443 62.3322 87.443 62.3322C74.239 75.8938 59.9316 75.2429 59.9316 75.2429C65.9437 81.644 74.962 81.1015 74.962 81.1015C63.166 83.7415 52.0929 80.0166 42.9985 72.8198C41.2862 71.4818 39.65 70.0352 38.1279 68.4801C38.1279 68.4801 36.758 67.1059 36.4917 66.7442L36.4536 66.7081C36.2634 73.3985 43.6074 79.6187 43.6074 79.6187C34.3988 76.0023 30.1751 68.1546 30.1751 68.1546C30.1751 68.1546 23.9727 58.1009 28.4628 46.6368C32.9529 35.1727 46.5373 32.7135 46.5373 32.7135C57.7626 37.885 67.2755 39.5124 67.2755 39.5124C87.3288 42.6949 86.1873 33.3645 86.1873 33.3645C86.3775 25.336 73.6302 16.8012 73.6302 16.8012C50.9133 0.780396 30.3653 11.1234 30.3653 11.1234C12.5952 18.6094 7.34404 34.9919 7.34404 34.9919C6.5069 37.5596 5.74586 40.0911 5.25119 42.7311C3.31055 53.4719 6.24054 63.6341 12.5952 72.6752C22.4886 86.707 38.5465 91.553 38.5465 91.553C62.3288 99.2198 78.5769 87.9365 78.5769 87.9365C93.5313 78.1722 96.5373 66.8889 96.5373 66.8889C84.4749 75.8576 79.2618 75.0259 79.2618 75.0259ZM60.6926 22.262C61.8341 22.262 62.7474 23.13 62.7474 24.2149C62.7474 25.2998 61.8341 26.1678 60.6926 26.1678C59.551 26.1678 58.6378 25.2998 58.6378 24.2149C58.6378 23.13 59.551 22.262 60.6926 22.262Z"
        fill="url(#paint0_linear_604_15)" />
    <path
        d="M86.1491 33.3282C86.3394 25.2997 73.592 16.7649 73.592 16.7649C50.8751 0.780285 30.3272 11.1233 30.3272 11.1233C12.557 18.6093 7.30589 34.9918 7.30589 34.9918C6.27849 37.7765 5.36525 42.0438 5.36525 42.0438C4.26175 47.3962 4.75642 52.3507 4.75642 52.3507C5.21304 57.0882 6.31654 60.2707 6.31654 60.2707C7.45809 63.6702 7.99082 64.7189 7.99082 64.7189C7.95276 64.6104 7.76251 63.8148 7.76251 63.8148C7.76251 63.8148 6.16433 56.5096 7.64835 49.4937C7.64835 49.4937 8.94211 42.1885 14.1933 36.5469C14.1933 36.5469 22.7168 25.0104 38.5844 29.531C38.5844 29.531 42.0091 30.6882 43.1887 31.2669C44.3683 31.8093 46.4231 32.6411 46.4231 32.6411C57.6484 37.8126 67.1613 39.44 67.1613 39.44C87.2907 42.6586 86.1491 33.3282 86.1491 33.3282ZM60.6925 26.2038C59.5509 26.2038 58.6377 25.3359 58.6377 24.251C58.6377 23.166 59.5509 22.2981 60.6925 22.2981C61.834 22.2981 62.7473 23.166 62.7473 24.251C62.7473 25.3359 61.834 26.2038 60.6925 26.2038Z"
        fill="url(#paint1_radial_604_15)" />
    <path
        d="M47.6789 18.7903L34.7032 14.9568C34.6271 14.9568 34.2466 14.776 33.5617 14.9568C33.5617 14.9568 25.9133 16.8012 27.2451 20.7793C27.2451 20.7793 28.0442 23.2746 30.2131 25.6977L44.4825 25.0467L47.6789 18.7903Z"
        fill="url(#paint2_linear_604_15)" />
    <defs>
        <linearGradient id="paint0_linear_604_15" x1="15.752" y1="87.3221" x2="60.5546" y2="37.1726"
            gradientUnits="userSpaceOnUse">
            <stop stop-color="#E01D84" />
            <stop offset="0.401" stop-color="#DF1D85" />
            <stop offset="0.77" stop-color="#932C87" />
            <stop offset="1" stop-color="#5D2F88" />
        </linearGradient>
        <radialGradient id="paint1_radial_604_15" cx="0" cy="0" r="1" gradientUnits="userSpaceOnUse"
            gradientTransform="translate(67.8674 26.7476) rotate(0.130145) scale(46.2642 36.7673)">
            <stop stop-color="#E01D84" />
            <stop offset="0.139" stop-color="#DE1E85" />
            <stop offset="0.285" stop-color="#D62085" />
            <stop offset="0.434" stop-color="#C92386" />
            <stop offset="0.586" stop-color="#B72786" />
            <stop offset="0.739" stop-color="#9D2B87" />
            <stop offset="0.891" stop-color="#7C2E88" />
            <stop offset="1" stop-color="#5D2F88" />
        </radialGradient>
        <linearGradient id="paint2_linear_604_15" x1="27.0594" y1="20.286" x2="47.6678" y2="20.286"
            gradientUnits="userSpaceOnUse">
            <stop stop-color="#E01D84" />
            <stop offset="0.238" stop-color="#DA1E85" />
            <stop offset="0.658" stop-color="#C72085" />
            <stop offset="0.999" stop-color="#B52284" />
        </linearGradient>
    </defs>
</svg>