<svg width="101" height="101" viewBox="0 0 101 101" fill="none" xmlns="http://www.w3.org/2000/svg">
    <path d="M0.141602 0.891113H100.142V100.891H0.141602V0.891113Z" fill="#34BDB2" />
    <path
        d="M65.9467 34.8915C60.667 31.8282 55.9803 29.4192 49.8491 29.5255C46.3413 29.5864 43.3295 31.4931 42.6963 34.9825C42.1069 38.229 44.9928 40.0298 47.9952 41.1352C52.9745 42.9688 57.3092 44.9048 62.2018 46.9434C71.0959 50.6501 75.6565 56.6528 75.1174 64.3547C74.4315 74.1544 68.5338 81.1829 59.1608 83.5001C46.9131 86.5282 35.0198 81.9157 24.9709 75.4766C27.5073 71.6129 30.4499 68.9754 32.9709 65.1352C38.7764 67.6063 43.3374 70.9454 49.4108 71.4661C53.6932 71.8333 58.5456 71.629 59.5077 66.5989C60.3749 62.063 56.4272 59.6313 52.5768 58.2731C47.9928 56.6563 43.4174 54.6786 38.9221 52.8426C30.6124 49.4485 27.2311 42.8098 27.8002 34.9891C27.8002 30.4036 31.6049 21.1352 40.9334 18.2524C55.2663 13.8227 63.1631 18.3587 73.5565 25.038C70.7959 28.6888 68.6737 31.2845 65.9467 34.8915Z"
        fill="white" />
</svg>